
<svg aria-hidden="true" style="position:absolute;width:0;height:0;overflow:hidden" xmlns="http://www.w3.org/2000/svg">
  <defs>
    <symbol id="icon-burger" viewBox="0 0 35 32">
<path fill="#010101" style="fill:var(--color2, #010101)"  d="M31.555 25.778c0.685 0 1.343 0.264 1.839 0.737s0.791 1.118 0.823 1.802c0.033 0.684-0.199 1.355-0.647 1.873s-1.078 0.844-1.76 0.91l-0.256 0.012h-28.444c-0.685-0-1.343-0.264-1.839-0.737s-0.79-1.118-0.823-1.802 0.199-1.355 0.647-1.873c0.448-0.518 1.078-0.844 1.76-0.91l0.256-0.012h28.444zM31.555 13.333c0.707 0 1.386 0.281 1.886 0.781s0.781 1.178 0.781 1.886c0 0.707-0.281 1.385-0.781 1.886s-1.178 0.781-1.886 0.781h-28.444c-0.707 0-1.386-0.281-1.886-0.781s-0.781-1.178-0.781-1.886c0-0.707 0.281-1.386 0.781-1.886s1.178-0.781 1.886-0.781h28.444zM31.555 0.889c0.707 0 1.386 0.281 1.886 0.781s0.781 1.178 0.781 1.886-0.281 1.386-0.781 1.886c-0.5 0.5-1.178 0.781-1.886 0.781h-28.444c-0.707 0-1.386-0.281-1.886-0.781s-0.781-1.178-0.781-1.886c0-0.707 0.281-1.386 0.781-1.886s1.178-0.781 1.886-0.781h28.444z"></path>
</symbol>
    <symbol id="logo" viewBox="0 0 107 32">
      <path fill="#ff6b0a" style="fill:var(--color1, #ff6b0a)" d="M106.667 0v32H59.536V0h47.131zM74.42 8.811v13.927l.001.044a.842.842 0 0 1-.001.087c-.007.08.015.128.107.115a.485.485 0 0 1 .066-.001l.033.001h3.582c.075.001.112.001.129-.017s.016-.051.014-.116l-.001-.078V8.83l-.001-.033a.485.485 0 0 1 .001-.066c.008-.082-.02-.125-.109-.115-.018.002-.036.001-.054.001l-.028-.001h-3.55l-.062-.001c-.065-.001-.098-.001-.114.015s-.016.049-.015.116l.001.064zm19.579-.194h-5.863c-1.954 0-3.908 0-5.86-.002h-.133c-.066-.003-.089.028-.084.089a.486.486 0 0 1 0 .054v3.398c0 .072-.001.107.017.124s.051.017.118.016H85.923c.12 0 .18 0 .209.03s.029.087.029.2v10.335c-.001.059-.001.09.014.106.017.018.052.017.127.017h3.571c.111 0 .166 0 .193-.028s.027-.08.027-.186V12.488l-.001-.059c-.001-.063-.001-.097.015-.114.018-.019.055-.018.133-.018h3.798c.162 0 .162 0 .164-.159V8.759c.001-.072.001-.108-.016-.126s-.053-.017-.123-.016L94 8.618z"/>
      <path fill="#010101" style="fill:var(--color2, #010101)" d="m47.132 0 12.403 16-12.403 16H0V0h47.132zm-26.38 13.662.215.174a.371.371 0 0 0 .106-.107.256.256 0 0 1 .02-.026c.254-.302.507-.606.76-.91.507-.606 1.012-1.212 1.518-1.82.101-.122.097-.177-.018-.276a12.617 12.617 0 0 0-.277-.233c-.803-.657-1.685-1.17-2.684-1.467a9.43 9.43 0 0 0-2.043-.353c-.905-.061-1.802-.031-2.691.174-3.112.716-5.434 3.292-5.707 6.594a7.795 7.795 0 0 0 .225 2.638c.519 1.96 1.645 3.461 3.434 4.45.975.539 2.03.823 3.14.912.94.076 1.87.018 2.788-.189 1.553-.35 2.925-1.056 4.146-2.067a.333.333 0 0 0 .137-.289c-.004-1.572-.004-3.145-.003-4.717v-1.179a.66.66 0 0 0-.003-.062c-.003-.046-.006-.092.006-.134.015-.049-.012-.077-.037-.104-.021-.022-.042-.044-.039-.077.007-.054-.03-.062-.073-.062h-6.556l-.038.001c-.026.001-.052.002-.077-.001-.066-.007-.087.026-.083.087a.657.657 0 0 1 .001.077l-.001.038V17.839l-.001.074c-.001.063-.002.096.014.112s.052.017.125.016H19.772c.072-.001.107-.001.124.016.016.016.015.048.014.11l-.001.078v.679c0 .308 0 .311-.279.445-.818.391-1.681.503-2.573.391-.991-.123-1.784-.591-2.365-1.401-.378-.527-.585-1.122-.662-1.763-.097-.818.002-1.605.373-2.348.448-.892 1.125-1.533 2.098-1.827.682-.207 1.373-.153 2.056-.003.619.135 1.159.437 1.657.816.182.138.359.281.539.427zm18.346-2.98c-1.528-1.39-3.348-2.052-5.229-2.066-.869.002-1.518.072-2.207.251-1.998.521-3.563 1.638-4.602 3.422-1.067 1.83-1.283 3.793-.687 5.812.667 2.257 2.089 3.9 4.29 4.815 1.69.701 3.44.795 5.206.332 2.051-.537 3.624-1.725 4.654-3.578.869-1.562 1.102-3.238.778-4.987-.291-1.572-1.017-2.919-2.203-4zm-8.437 3.528c.666-1.227 1.729-1.815 2.762-1.838 2.094-.005 3.464 1.173 3.837 2.806.226.984.125 1.94-.358 2.834-.57 1.05-1.458 1.661-2.654 1.797-1.156.133-2.165-.194-2.99-1.025a3.579 3.579 0 0 1-.983-1.914c-.172-.928-.066-1.827.386-2.66z"/>
    </symbol>
    <symbol id="javascript" viewBox="0 0 32 32">
      <path fill="#f7df1e" style="fill:var(--color3, #f7df1e)" d="M0 0h32v32H0V0z"/>
      <path style="fill:var(--color4, #000)" d="m8.414 26.741 2.449-1.482c.473.838.902 1.546 1.933 1.546.988 0 1.611-.387 1.611-1.89V14.69h3.007v10.267c0 3.115-1.826 4.532-4.489 4.532-2.406 0-3.802-1.246-4.511-2.75zm10.634-.322 2.448-1.418c.645 1.053 1.482 1.826 2.964 1.826 1.246 0 2.041-.623 2.041-1.482 0-1.031-.816-1.396-2.191-1.997l-.752-.323c-2.17-.923-3.609-2.083-3.609-4.532 0-2.256 1.718-3.974 4.404-3.974 1.912 0 3.287.666 4.274 2.406l-2.341 1.504c-.516-.924-1.074-1.289-1.933-1.289-.881 0-1.439.558-1.439 1.289 0 .902.558 1.268 1.847 1.826l.752.322c2.556 1.096 3.995 2.212 3.995 4.726 0 2.707-2.127 4.189-4.983 4.189-2.792 0-4.597-1.332-5.477-3.072z"/>
    </symbol>
    <symbol id="icon-menu" viewBox="0 0 32 32">
<path d="M23.333 5.333c0-0.514 0.198-1.007 0.552-1.379s0.838-0.593 1.351-0.618c0.513-0.025 1.016 0.149 1.404 0.485s0.633 0.809 0.682 1.32l0.009 0.192v21.333c-0 0.514-0.198 1.008-0.553 1.379s-0.838 0.593-1.351 0.617c-0.513 0.025-1.016-0.149-1.404-0.485s-0.633-0.808-0.682-1.32l-0.009-0.192v-21.333zM14 5.333c0-0.53 0.211-1.039 0.586-1.414s0.884-0.586 1.414-0.586c0.53 0 1.039 0.211 1.414 0.586s0.586 0.884 0.586 1.414v21.333c0 0.53-0.211 1.039-0.586 1.414s-0.884 0.586-1.414 0.586c-0.53 0-1.039-0.211-1.414-0.586s-0.586-0.884-0.586-1.414v-21.333zM4.667 5.333c0-0.53 0.211-1.039 0.586-1.414s0.884-0.586 1.414-0.586c0.53 0 1.039 0.211 1.414 0.586s0.586 0.884 0.586 1.414v21.333c0 0.53-0.211 1.039-0.586 1.414s-0.884 0.586-1.414 0.586-1.039-0.211-1.414-0.586c-0.375-0.375-0.586-0.884-0.586-1.414v-21.333z"></path>
</symbol>


<svg aria-hidden="true" style="position: absolute; width: 0; height: 0; overflow: hidden;" version="1.1" xmlns="http://www.w3.org/2000/svg" xmlns:xlink="http://www.w3.org/1999/xlink">
<defs>
<symbol id="icon-arrow" viewBox="0 0 40 32">
<path d="M17.78 1.42c-0.525-0.525-1.237-0.82-1.98-0.82s-1.454 0.295-1.98 0.82l-12.6 12.6c-0.525 0.525-0.82 1.237-0.82 1.98s0.295 1.455 0.82 1.98l12.6 12.6c0.528 0.51 1.235 0.792 1.97 0.786s1.436-0.301 1.956-0.82c0.519-0.519 0.814-1.221 0.82-1.956s-0.276-1.441-0.786-1.97l-7.58-7.82h26.6c0.743 0 1.455-0.295 1.98-0.82s0.82-1.237 0.82-1.98c0-0.743-0.295-1.455-0.82-1.98s-1.237-0.82-1.98-0.82h-26.6l7.58-7.82c0.525-0.525 0.82-1.237 0.82-1.98s-0.295-1.455-0.82-1.98z"></path>
</symbol>
<symbol id="icon-arrow-accardion" viewBox="0 0 52 32">
<path d="M27.724 28.755c-0.852 0.852-2.233 0.852-3.085 0l-22.244-22.244c-0.852-0.852-0.852-2.233 0-3.085l1.029-1.029c0.852-0.852 2.233-0.852 3.086 0l19.673 19.673 19.673-19.673c0.852-0.852 2.233-0.852 3.085 0l1.029 1.029c0.852 0.852 0.852 2.233 0 3.085l-22.244 22.244z"></path>
</symbol>
<symbol id="icon-cloud" viewBox="0 0 32 32">
<path d="M25.795 30.134l-3.499-3.467h-14.061c-2.024 0-3.741-0.711-5.149-2.133s-2.112-3.156-2.112-5.2c0-1.707 0.524-3.227 1.571-4.56 1.047-1.342 2.394-2.2 4.040-2.573 0.070-0.178 0.136-0.351 0.198-0.52 0.088-0.169 0.154-0.351 0.198-0.547l-5.479-5.533 1.848-1.867 24.294 24.533zM8.235 24h11.421l-10.629-10.733c-0.044 0.249-0.075 0.493-0.092 0.733-0.026 0.204-0.040 0.427-0.040 0.667h-0.66c-1.276 0-2.363 0.458-3.261 1.373-0.907 0.907-1.36 2.004-1.36 3.293s0.453 2.4 1.36 3.333c0.898 0.889 1.985 1.333 3.261 1.333zM28.171 25l-1.914-1.867c0.378-0.311 0.66-0.671 0.845-1.080s0.277-0.871 0.277-1.387c0-0.933-0.321-1.72-0.964-2.36-0.634-0.649-1.413-0.973-2.337-0.973h-1.981v-2.667c0-1.84-0.642-3.413-1.928-4.72-1.285-1.298-2.843-1.947-4.674-1.947-0.59 0-1.162 0.071-1.716 0.213-0.555 0.151-1.083 0.382-1.584 0.693l-1.914-1.933c0.775-0.533 1.593-0.942 2.456-1.227 0.871-0.276 1.791-0.413 2.759-0.413 2.579 0 4.762 0.907 6.549 2.72 1.796 1.804 2.694 4.009 2.694 6.613 1.523 0.178 2.782 0.844 3.776 2 1.003 1.138 1.505 2.471 1.505 4 0 0.889-0.163 1.693-0.488 2.413-0.334 0.747-0.788 1.387-1.36 1.92z"></path>
</symbol>
<symbol id="icon-colors" viewBox="0 0 32 32">
<path d="M15.373 29.334c-7.275 0-13.203-5.987-13.203-13.333s5.928-13.333 13.203-13.333c7.275 0 13.203 5.387 13.203 12 0 4.413-3.552 8-7.922 8h-2.337c-0.37 0-0.66 0.293-0.66 0.667 0 0.16 0.066 0.307 0.172 0.44 0.541 0.627 0.845 1.413 0.845 2.227 0 0.884-0.348 1.732-0.967 2.357s-1.459 0.976-2.334 0.976zM15.373 5.334c-5.823 0-10.563 4.787-10.563 10.667s4.74 10.667 10.563 10.667c0.37 0 0.66-0.293 0.66-0.667-0.004-0.173-0.070-0.339-0.185-0.467-0.541-0.613-0.832-1.4-0.832-2.2 0-0.884 0.348-1.732 0.967-2.357s1.459-0.976 2.334-0.976h2.337c2.918 0 5.281-2.387 5.281-5.333 0-5.147-4.74-9.333-10.563-9.333z"></path>
<path d="M8.111 17.334c1.094 0 1.98-0.895 1.98-2s-0.887-2-1.98-2-1.981 0.895-1.981 2c0 1.105 0.887 2 1.981 2z"></path>
<path d="M12.072 12c1.094 0 1.98-0.895 1.98-2s-0.887-2-1.98-2c-1.094 0-1.98 0.895-1.98 2s0.887 2 1.98 2z"></path>
<path d="M18.674 12c1.094 0 1.981-0.895 1.981-2s-0.887-2-1.981-2c-1.094 0-1.98 0.895-1.98 2s0.887 2 1.98 2z"></path>
<path d="M22.635 17.334c1.094 0 1.981-0.895 1.981-2s-0.887-2-1.981-2-1.98 0.895-1.98 2c0 1.105 0.887 2 1.98 2z"></path>
</symbol>
<symbol id="icon-progression" viewBox="0 0 32 32">
<path d="M28.311 1.269l-9.163 3.459 3.289 2.084c-5.875 7.438-14.373 12.019-21.554 13.763l2.034 3.725c8.068-2.644 16.61-7.412 22.112-15.837l2.505 1.588 0.777-8.781zM28.79 8.563l-0.298 3.425-3.189-2.025c-0.112 0.169-0.23 0.331-0.348 0.5v19.975h4.849v-21.875h-1.013zM19.427 16.563c-0.789 0.687-1.604 1.337-2.431 1.95v11.925h4.849v-13.875h-2.418zM11.737 21.813c-0.895 0.475-1.79 0.913-2.698 1.325v7.3h4.849v-8.625h-2.151zM1.081 24.563v5.875h4.849v-5.875h-0.353c-0.921 0.344-1.842 0.663-2.757 0.956l-0.439 0.138-0.597-1.094h-0.703z"></path>
</symbol>
<symbol id="icon-tips" viewBox="0 0 32 32">
<path d="M8.89 26.667h5.281c0 1.467-1.188 2.667-2.641 2.667s-2.641-1.2-2.641-2.667zM6.249 25.334h10.563v-2.667h-10.563v2.667zM21.433 12.667c0 5.093-3.512 7.813-4.978 8.667h-9.85c-1.466-0.853-4.978-3.573-4.978-8.667 0-5.52 4.436-10 9.902-10s9.902 4.48 9.902 10zM18.792 12.667c0-4.040-3.261-7.333-7.262-7.333s-7.262 3.293-7.262 7.333c0 3.293 1.967 5.187 3.103 6h8.318c1.136-0.813 3.103-2.707 3.103-6zM27.863 9.827l-1.809 0.84 1.809 0.84 0.832 1.827 0.832-1.827 1.809-0.84-1.809-0.84-0.832-1.827-0.832 1.827zM24.734 8l1.241-2.747 2.72-1.253-2.72-1.253-1.241-2.747-1.241 2.747-2.72 1.253 2.72 1.253 1.241 2.747z"></path>
</symbol>
</defs>

</svg>
