<svg aria-hidden="true" style="position: absolute; width: 0; height: 0; overflow: hidden;" version="1.1" xmlns="http://www.w3.org/2000/svg" xmlns:xlink="http://www.w3.org/1999/xlink">
<defs>
<symbol id="icon-arrow" viewBox="0 0 40 32">
<path d="M17.78 1.42c-0.525-0.525-1.237-0.82-1.98-0.82s-1.454 0.295-1.98 0.82l-12.6 12.6c-0.525 0.525-0.82 1.237-0.82 1.98s0.295 1.455 0.82 1.98l12.6 12.6c0.528 0.51 1.235 0.792 1.97 0.786s1.436-0.301 1.956-0.82c0.519-0.519 0.814-1.221 0.82-1.956s-0.276-1.441-0.786-1.97l-7.58-7.82h26.6c0.743 0 1.455-0.295 1.98-0.82s0.82-1.237 0.82-1.98c0-0.743-0.295-1.455-0.82-1.98s-1.237-0.82-1.98-0.82h-26.6l7.58-7.82c0.525-0.525 0.82-1.237 0.82-1.98s-0.295-1.455-0.82-1.98z"></path>
</symbol>
<symbol id="icon-arrow-accardion" viewBox="0 0 52 32">
<path d="M27.724 28.755c-0.852 0.852-2.233 0.852-3.085 0l-22.244-22.244c-0.852-0.852-0.852-2.233 0-3.085l1.029-1.029c0.852-0.852 2.233-0.852 3.086 0l19.673 19.673 19.673-19.673c0.852-0.852 2.233-0.852 3.085 0l1.029 1.029c0.852 0.852 0.852 2.233 0 3.085l-22.244 22.244z"></path>
</symbol>
<symbol id="icon-cloud" viewBox="0 0 32 32">
<path d="M25.795 30.134l-3.499-3.467h-14.061c-2.024 0-3.741-0.711-5.149-2.133s-2.112-3.156-2.112-5.2c0-1.707 0.524-3.227 1.571-4.56 1.047-1.342 2.394-2.2 4.040-2.573 0.070-0.178 0.136-0.351 0.198-0.52 0.088-0.169 0.154-0.351 0.198-0.547l-5.479-5.533 1.848-1.867 24.294 24.533zM8.235 24h11.421l-10.629-10.733c-0.044 0.249-0.075 0.493-0.092 0.733-0.026 0.204-0.040 0.427-0.040 0.667h-0.66c-1.276 0-2.363 0.458-3.261 1.373-0.907 0.907-1.36 2.004-1.36 3.293s0.453 2.4 1.36 3.333c0.898 0.889 1.985 1.333 3.261 1.333zM28.171 25l-1.914-1.867c0.378-0.311 0.66-0.671 0.845-1.080s0.277-0.871 0.277-1.387c0-0.933-0.321-1.72-0.964-2.36-0.634-0.649-1.413-0.973-2.337-0.973h-1.981v-2.667c0-1.84-0.642-3.413-1.928-4.72-1.285-1.298-2.843-1.947-4.674-1.947-0.59 0-1.162 0.071-1.716 0.213-0.555 0.151-1.083 0.382-1.584 0.693l-1.914-1.933c0.775-0.533 1.593-0.942 2.456-1.227 0.871-0.276 1.791-0.413 2.759-0.413 2.579 0 4.762 0.907 6.549 2.72 1.796 1.804 2.694 4.009 2.694 6.613 1.523 0.178 2.782 0.844 3.776 2 1.003 1.138 1.505 2.471 1.505 4 0 0.889-0.163 1.693-0.488 2.413-0.334 0.747-0.788 1.387-1.36 1.92z"></path>
</symbol>
<symbol id="icon-colors" viewBox="0 0 32 32">
<path d="M15.373 29.334c-7.275 0-13.203-5.987-13.203-13.333s5.928-13.333 13.203-13.333c7.275 0 13.203 5.387 13.203 12 0 4.413-3.552 8-7.922 8h-2.337c-0.37 0-0.66 0.293-0.66 0.667 0 0.16 0.066 0.307 0.172 0.44 0.541 0.627 0.845 1.413 0.845 2.227 0 0.884-0.348 1.732-0.967 2.357s-1.459 0.976-2.334 0.976zM15.373 5.334c-5.823 0-10.563 4.787-10.563 10.667s4.74 10.667 10.563 10.667c0.37 0 0.66-0.293 0.66-0.667-0.004-0.173-0.070-0.339-0.185-0.467-0.541-0.613-0.832-1.4-0.832-2.2 0-0.884 0.348-1.732 0.967-2.357s1.459-0.976 2.334-0.976h2.337c2.918 0 5.281-2.387 5.281-5.333 0-5.147-4.74-9.333-10.563-9.333z"></path>
<path d="M8.111 17.334c1.094 0 1.98-0.895 1.98-2s-0.887-2-1.98-2-1.981 0.895-1.981 2c0 1.105 0.887 2 1.981 2z"></path>
<path d="M12.072 12c1.094 0 1.98-0.895 1.98-2s-0.887-2-1.98-2c-1.094 0-1.98 0.895-1.98 2s0.887 2 1.98 2z"></path>
<path d="M18.674 12c1.094 0 1.981-0.895 1.981-2s-0.887-2-1.981-2c-1.094 0-1.98 0.895-1.98 2s0.887 2 1.98 2z"></path>
<path d="M22.635 17.334c1.094 0 1.981-0.895 1.981-2s-0.887-2-1.981-2-1.98 0.895-1.98 2c0 1.105 0.887 2 1.98 2z"></path>
</symbol>
<symbol id="icon-progression" viewBox="0 0 32 32">
<path d="M28.311 1.269l-9.163 3.459 3.289 2.084c-5.875 7.438-14.373 12.019-21.554 13.763l2.034 3.725c8.068-2.644 16.61-7.412 22.112-15.837l2.505 1.588 0.777-8.781zM28.79 8.563l-0.298 3.425-3.189-2.025c-0.112 0.169-0.23 0.331-0.348 0.5v19.975h4.849v-21.875h-1.013zM19.427 16.563c-0.789 0.687-1.604 1.337-2.431 1.95v11.925h4.849v-13.875h-2.418zM11.737 21.813c-0.895 0.475-1.79 0.913-2.698 1.325v7.3h4.849v-8.625h-2.151zM1.081 24.563v5.875h4.849v-5.875h-0.353c-0.921 0.344-1.842 0.663-2.757 0.956l-0.439 0.138-0.597-1.094h-0.703z"></path>
</symbol>
<symbol id="icon-tips" viewBox="0 0 32 32">
<path d="M8.89 26.667h5.281c0 1.467-1.188 2.667-2.641 2.667s-2.641-1.2-2.641-2.667zM6.249 25.334h10.563v-2.667h-10.563v2.667zM21.433 12.667c0 5.093-3.512 7.813-4.978 8.667h-9.85c-1.466-0.853-4.978-3.573-4.978-8.667 0-5.52 4.436-10 9.902-10s9.902 4.48 9.902 10zM18.792 12.667c0-4.040-3.261-7.333-7.262-7.333s-7.262 3.293-7.262 7.333c0 3.293 1.967 5.187 3.103 6h8.318c1.136-0.813 3.103-2.707 3.103-6zM27.863 9.827l-1.809 0.84 1.809 0.84 0.832 1.827 0.832-1.827 1.809-0.84-1.809-0.84-0.832-1.827-0.832 1.827zM24.734 8l1.241-2.747 2.72-1.253-2.72-1.253-1.241-2.747-1.241 2.747-2.72 1.253 2.72 1.253 1.241 2.747z"></path>
</symbol>
</defs>
</svg>
