<svg width="26" height="24" viewBox="0 0 26 24" fill="none" xmlns="http://www.w3.org/2000/svg">
<path d="M23.6666 19.3333C24.1803 19.3335 24.6741 19.5314 25.0458 19.8858C25.4176 20.2403 25.6387 20.7241 25.6633 21.2372C25.688 21.7502 25.5144 22.2531 25.1784 22.6416C24.8424 23.0301 24.3699 23.2744 23.8586 23.324L23.6666 23.3333H2.33331C1.81969 23.333 1.32585 23.1352 0.954131 22.7807C0.582408 22.4263 0.361297 21.9424 0.336614 21.4294C0.311931 20.9164 0.485569 20.4135 0.821547 20.025C1.15753 19.6365 1.63009 19.3922 2.14131 19.3426L2.33331 19.3333H23.6666ZM23.6666 9.99996C24.1971 9.99996 24.7058 10.2107 25.0809 10.5857C25.4559 10.9608 25.6666 11.4695 25.6666 12C25.6666 12.5304 25.4559 13.0391 25.0809 13.4142C24.7058 13.7892 24.1971 14 23.6666 14H2.33331C1.80288 14 1.29417 13.7892 0.9191 13.4142C0.544027 13.0391 0.333313 12.5304 0.333313 12C0.333313 11.4695 0.544027 10.9608 0.9191 10.5857C1.29417 10.2107 1.80288 9.99996 2.33331 9.99996H23.6666ZM23.6666 0.666626C24.1971 0.666626 24.7058 0.87734 25.0809 1.25241C25.4559 1.62749 25.6666 2.13619 25.6666 2.66663C25.6666 3.19706 25.4559 3.70577 25.0809 4.08084C24.7058 4.45591 24.1971 4.66663 23.6666 4.66663H2.33331C1.80288 4.66663 1.29417 4.45591 0.9191 4.08084C0.544027 3.70577 0.333313 3.19706 0.333313 2.66663C0.333313 2.13619 0.544027 1.62749 0.9191 1.25241C1.29417 0.87734 1.80288 0.666626 2.33331 0.666626H23.6666Z" fill="#EAEAEA"/>
</svg>
